PathFileType	4	(X/Y/Z)	/Users/itak/Documents/Research/Walk-IL/dataset/trc/00236_00009.trc
DataRate	CameraRate	NumFrames	NumMarkers	Units	OrigDataRate	OrigDataStartFrame	OrigNumFrames
100.000000	100.000000	4	53	mm	100.000000	614	819
Frame#	Time	RPSI			LPSI			L3			STRN			T10			C7			CLAV			RBAK			LBAK			LSHO			LUPA			LAEL			LAOL			LWTS			LWPS			LFRA			LIFD			LHPS			LHTS			RSHO			RUPA			RAEL			RAOL			RWTS			RWPS			RFRA			RIFD			RHTS			RHPS			RBHD			LFHD			RFHD			LBHD			LHIP			RHIP			RASI			LASI			LKNE			LTHI			LANK			LTIP			LTOE			LMT5			LHEE			RKNE			RTHI			RANK			RTIP			RTOE			RMT1			RMT5			RHEE			LMT1			
		X1	Y1	Z1	X2	Y2	Z2	X3	Y3	Z3	X4	Y4	Z4	X5	Y5	Z5	X6	Y6	Z6	X7	Y7	Z7	X8	Y8	Z8	X9	Y9	Z9	X10	Y10	Z10	X11	Y11	Z11	X12	Y12	Z12	X13	Y13	Z13	X14	Y14	Z14	X15	Y15	Z15	X16	Y16	Z16	X17	Y17	Z17	X18	Y18	Z18	X19	Y19	Z19	X20	Y20	Z20	X21	Y21	Z21	X22	Y22	Z22	X23	Y23	Z23	X24	Y24	Z24	X25	Y25	Z25	X26	Y26	Z26	X27	Y27	Z27	X28	Y28	Z28	X29	Y29	Z29	X30	Y30	Z30	X31	Y31	Z31	X32	Y32	Z32	X33	Y33	Z33	X34	Y34	Z34	X35	Y35	Z35	X36	Y36	Z36	X37	Y37	Z37	X38	Y38	Z38	X39	Y39	Z39	X40	Y40	Z40	X41	Y41	Z41	X42	Y42	Z42	X43	Y43	Z43	X44	Y44	Z44	X45	Y45	Z45	X46	Y46	Z46	X47	Y47	Z47	X48	Y48	Z48	X49	Y49	Z49	X50	Y50	Z50	X51	Y51	Z51	X52	Y52	Z52	X53	Y53	Z53	

615	6.140000000000001	-485.9384765625	1046.043823242188	219.7727355957031	-377.471435546875	1044.64599609375	166.8731994628906	-419.4806518554688	1128.892578125	181.01171875	-303.1142272949219	1310.289672851562	403.3676452636719	-425.9504699707031	1256.726684570312	182.3692932128906	-393.6053466796875	1517.191650390625	240.9251403808594	-318.4673156738281	1427.763916015625	383.9986267089844	-493.3825988769531	1378.033935546875	204.3352203369141	-305.406494140625	1482.068481445312	170.7474975585938	-214.2715759277344	1482.092041015625	223.7291717529297	-157.7384643554688	1369.197998046875	151.0023498535156	-118.3453063964844	1164.102783203125	129.7135314941406	-197.3152465820312	1146.485107421875	95.09079742431641	-99.54396820068359	922.3464965820312	214.8081512451172	-49.32914733886719	914.4666748046875	146.8532409667969	-88.77504730224609	1057.968139648438	130.0404205322266	-78.52288055419922	731.2476196289062	198.4275970458984	-37.41566848754883	825.6884155273438	156.6412048339844	-55.99440002441406	823.80810546875	222.4587707519531	-515.1239624023438	1470.420043945312	369.8606262207031	-583.2244262695312	1406.726440429688	383.6729431152344	-641.233642578125	1130.611694335938	389.2062377929688	-578.012939453125	1117.67529296875	318.7388305664062	-559.3206176757812	911.8218994140625	497.6096496582031	-641.6672973632812	904.1926879882812	479.5505676269531	-645.3331298828125	1063.44384765625	419.8916931152344	-558.61865234375	727.502197265625	494.5235595703125	-565.8685302734375	790.8151245117188	540.4303588867188	-633.3679809570312	796.17578125	515.7846069335938	-417.9854125976562	1670.578369140625	304.8042907714844	-248.4596405029297	1710.983642578125	450.8482666015625	-339.9094848632812	1707.725708007812	492.0086975097656	-278.6225891113281	1679.8193359375	291.4424743652344	-208.8320159912109	978.7368774414062	195.6199645996094	-528.6336669921875	1012.618774414062	357.3464660644531	-460.52587890625	1053.143188476562	424.8528747558594	-206.1093444824219	1025.752563476562	305.6781005859375	-179.4520721435547	502.4556579589844	318.8806457519531	-175.43017578125	644.5537109375	283.1801147460938	-334.7979125976562	156.9161071777344	11.74927806854248	-245.5472106933594	342.1236877441406	170.0902099609375	-300.3905944824219	49.86422348022461	196.2292327880859	-271.543701171875	84.48125457763672	96.83918762207031	-402.385009765625	197.5937805175781	-5.481189250946045	-472.7259521484375	526.3438720703125	429.4337768554688	-513.9743041992188	793.6597290039062	433.3208312988281	-482.6628723144531	30.59408378601074	380.1062927246094	-453.3110046386719	405.7869262695312	436.0740356445312	-337.4261474609375	45.68353271484375	539.7530517578125	-328.4730224609375	45.19296646118164	471.0827026367188	-449.9149169921875	33.19778442382812	487.647705078125	-460.9504089355469	33.03613662719727	297.1281127929688	-364.8960876464844	77.71709442138672	159.9012298583984	
616	6.15	-486.2090148925781	1046.424438476562	225.2206726074219	-378.3625183105469	1045.197875976562	171.2782592773438	-420.6239624023438	1129.640014648438	186.1174926757812	-301.4624328613281	1310.518798828125	407.5463256835938	-427.3900756835938	1257.536743164062	187.9049682617188	-394.1603088378906	1517.807983398438	246.8737945556641	-316.9743347167969	1428.0712890625	388.6767272949219	-494.6147155761719	1378.872680664062	211.5633087158203	-306.9163208007812	1482.753662109375	175.5198669433594	-215.1109924316406	1482.717529296875	227.0467071533203	-159.6580047607422	1370.102416992188	153.0377807617188	-120.5262985229492	1165.231567382812	130.1094665527344	-200.1895599365234	1147.482543945312	97.04784393310547	-99.29741668701172	923.7106323242188	215.1896667480469	-50.64741897583008	915.74609375	146.1480560302734	-90.67580413818359	1059.1103515625	129.8382110595703	-78.01716613769531	732.6680297851562	199.14013671875	-38.07072448730469	827.1051025390625	156.0113830566406	-55.19035339355469	825.430908203125	222.2185821533203	-513.7047729492188	1471.013549804688	377.5395202636719	-581.645263671875	1407.368530273438	392.4765319824219	-639.4373779296875	1131.27197265625	399.6789245605469	-577.1929321289062	1118.063720703125	328.3607177734375	-556.2401123046875	912.7949829101562	507.7138977050781	-638.938232421875	905.4729614257812	490.9810791015625	-643.1619873046875	1064.246948242188	430.6796875	-555.9474487304688	728.4701538085938	505.1284484863281	-562.184814453125	791.9573974609375	550.9005737304688	-630.256591796875	797.3706665039062	527.3067016601562	-417.1783752441406	1671.077270507812	311.1523742675781	-246.1805114746094	1711.014526367188	455.5629272460938	-337.2318115234375	1707.777099609375	497.6268005371094	-277.9270324707031	1680.197387695312	296.3731079101562	-209.141357421875	979.900390625	198.5122222900391	-528.36669921875	1012.906799316406	363.1535339355469	-459.3276062011719	1053.356323242188	430.1557006835938	-206.0327301025391	1026.615112304688	308.6384582519531	-175.9271087646484	504.6361083984375	326.4582824707031	-172.643310546875	646.3831176757812	288.9992980957031	-334.5142822265625	154.4370422363281	26.52701377868652	-243.9030456542969	342.3599853515625	180.5135345458984	-292.1719360351562	50.66613388061523	211.5765991210938	-266.8451843261719	84.94268798828125	110.9062347412109	-403.6385803222656	193.3591461181641	10.58530330657959	-472.3913269042969	525.9254150390625	431.603271484375	-512.7772827148438	793.4603271484375	437.8591918945312	-482.598388671875	30.71810531616211	380.0735473632812	-453.0440979003906	405.4649658203125	437.4817199707031	-337.342529296875	45.58883666992188	539.7994384765625	-328.3696899414062	45.09888076782227	471.1270751953125	-449.8660888671875	33.22436141967773	487.6270446777344	-460.8429565429688	33.07854461669922	297.1456298828125	-358.2453002929688	76.52136993408203	176.7723846435547	
617	6.16	-486.3810729980469	1046.785766601562	230.5919189453125	-379.1878662109375	1045.733520507812	175.6005401611328	-421.6864929199219	1130.35546875	191.1987609863281	-299.7930297851562	1310.710327148438	411.6515502929688	-428.7265014648438	1258.27685546875	193.4009552001953	-394.6321105957031	1518.368530273438	252.7384033203125	-315.4596557617188	1428.340454101562	393.2703247070312	-495.7166748046875	1379.634155273438	218.7113189697266	-308.3439025878906	1483.389038085938	180.2510375976562	-215.8984222412109	1483.290649414062	230.3379669189453	-161.5426025390625	1370.924682617188	155.1262969970703	-122.7965850830078	1166.245971679688	130.6158447265625	-203.0960388183594	1148.379028320312	99.14597320556641	-99.23782348632812	924.9812622070312	215.6851348876953	-52.17496871948242	916.887451171875	145.5745544433594	-92.71746063232422	1060.139038085938	129.7667236328125	-77.81752777099609	733.9671630859375	199.9693908691406	-38.97500228881836	828.3773193359375	155.5122222900391	-54.60699081420898	826.9285888671875	222.0883331298828	-512.2245483398438	1471.553955078125	385.0710144042969	-579.992431640625	1407.962158203125	401.09814453125	-637.5442504882812	1131.881713867188	409.9430847167969	-576.2481079101562	1118.389282226562	337.8357238769531	-553.0667724609375	913.8007202148438	517.7362670898438	-636.0799560546875	906.7611083984375	502.2519836425781	-640.9091796875	1065.00244140625	441.2654418945312	-553.0057373046875	729.4800415039062	515.7977294921875	-558.4351806640625	793.143798828125	561.395751953125	-626.9586791992188	798.5602416992188	538.7495727539062	-416.3008117675781	1671.56982421875	317.396240234375	-243.8330230712891	1710.952270507812	460.1942138671875	-334.4776000976562	1707.759399414062	503.1461791992188	-277.1496276855469	1680.519165039062	301.23046875	-209.3758850097656	980.9913330078125	201.3486633300781	-528.0770874023438	1013.136596679688	368.8937377929688	-458.1065979003906	1053.51123046875	435.3916320800781	-205.9050140380859	1027.423583984375	311.5521850585938	-172.5401611328125	506.7678833007812	333.8444519042969	-169.9342651367188	648.166015625	294.6559448242188	-333.7067565917969	151.0453033447266	41.86883544921875	-242.0993499755859	342.1181945800781	191.0753479003906	-284.4789733886719	51.37389755249023	227.6116638183594	-262.3275756835938	84.6334228515625	125.7691116333008	-404.1046752929688	188.34521484375	26.94241714477539	-472.0928039550781	525.5029907226562	433.6628112792969	-511.5748596191406	793.2266235351562	442.2667236328125	-482.5315246582031	30.84632682800293	380.0319519042969	-452.8109130859375	405.1457824707031	438.8239440917969	-337.2476806640625	45.48524475097656	539.8549194335938	-328.2687377929688	45.00272750854492	471.1734619140625	-449.8188171386719	33.25114822387695	487.6082153320312	-460.7327270507812	33.12826156616211	297.1543884277344	-351.8262634277344	75.24273681640625	194.0810699462891	
618	6.17	-486.4682006835938	1047.12939453125	235.8976440429688	-379.9593200683594	1046.243896484375	179.8442687988281	-422.6645812988281	1131.024780273438	196.2582855224609	-298.0978698730469	1310.853881835938	415.6896362304688	-429.9671325683594	1258.933837890625	198.8624267578125	-395.0144653320312	1518.865600585938	258.5257263183594	-313.9180908203125	1428.560424804688	397.7832946777344	-496.6827392578125	1380.304809570312	225.7768859863281	-309.7014465332031	1483.964111328125	184.9283447265625	-216.6301879882812	1483.796264648438	233.5983276367188	-163.3913421630859	1371.646484375	157.2669219970703	-125.1334915161133	1167.128173828125	131.2555694580078	-205.9881134033203	1149.15869140625	101.3849868774414	-99.37860870361328	926.1267700195312	216.2959442138672	-53.89099884033203	917.8707275390625	145.1576232910156	-94.87453460693359	1061.035766601562	129.8509979248047	-77.91333770751953	735.119873046875	200.9027404785156	-40.12569808959961	829.4794311523438	155.1590881347656	-54.26994705200195	828.2631225585938	222.0743103027344	-510.6844787597656	1472.021240234375	392.4599304199219	-578.2637939453125	1408.487060546875	409.5383911132812	-635.5767211914062	1132.426025390625	419.9969787597656	-575.2111206054688	1118.6357421875	347.1468200683594	-549.7962036132812	914.8257446289062	527.6619873046875	-633.0885009765625	908.0175170898438	513.3408203125	-638.58740234375	1065.692504882812	451.6475524902344	-549.7738647460938	730.5214233398438	526.5242919921875	-554.5927124023438	794.3731079101562	571.9024658203125	-623.4573974609375	799.72216796875	550.1066284179688	-415.3596496582031	1672.036743164062	323.533935546875	-241.4260101318359	1710.8076171875	464.7356262207031	-331.6581420898438	1707.679321289062	508.560302734375	-276.3017272949219	1680.775634765625	306.0130615234375	-209.5492553710938	981.9834594726562	204.1302947998047	-527.7398071289062	1013.300109863281	374.5732116699219	-456.8376159667969	1053.599853515625	440.5669860839844	-205.7130279541016	1028.15771484375	314.4115905761719	-169.2772064208984	508.8304138183594	341.0230712890625	-167.3324432373047	649.879150390625	300.1239929199219	-332.3789672851562	146.8493804931641	57.71228790283203	-240.1228179931641	341.4331665039062	201.7413787841797	-277.1717834472656	52.01054000854492	244.2641754150391	-257.89208984375	83.63739776611328	141.3408966064453	-403.8182067871094	182.650634765625	43.55668258666992	-471.8329162597656	525.0772094726562	435.6251831054688	-510.3649291992188	792.9639892578125	446.5513000488281	-482.4618835449219	30.97522163391113	379.98291015625	-452.616455078125	404.8276062011719	440.1082153320312	-337.1450500488281	45.37484359741211	539.9203491210938	-328.1717529296875	44.90571594238281	471.220947265625	-449.7745666503906	33.27642059326172	487.5914916992188	-460.6264038085938	33.18687438964844	297.15087890625	-345.5829467773438	73.89222717285156	211.7957305908203	
